<svg width="22" height="22" viewBox="0 0 22 22" fill="none" xmlns="http://www.w3.org/2000/svg">
<path fill-rule="evenodd" clip-rule="evenodd" d="M0 11C0 4.92487 4.92487 0 11 0C17.0751 0 22 4.92487 22 11C22 17.0751 17.0751 22 11 22C4.92487 22 0 17.0751 0 11Z" fill="#2F75EC"/>
<path fill-rule="evenodd" clip-rule="evenodd" d="M16.6957 7.31082C16.29 6.89639 15.6164 6.89639 15.2107 7.31082L9.23986 13.402L6.79795 10.8842C6.37693 10.4776 5.71861 10.4776 5.29759 10.8999C4.89954 11.3221 4.89954 11.9946 5.30525 12.4246L8.4514 15.6227L8.49733 15.6775C8.9107 16.1075 9.57667 16.1075 9.99004 15.6775L16.6957 8.82776C17.1014 8.40552 17.1014 7.72524 16.6957 7.31082Z" fill="white"/>
<mask id="mask0" mask-type="alpha" maskUnits="userSpaceOnUse" x="5" y="7" width="12" height="9">
<path fill-rule="evenodd" clip-rule="evenodd" d="M16.6957 7.31082C16.29 6.89639 15.6164 6.89639 15.2107 7.31082L9.23986 13.402L6.79795 10.8842C6.37693 10.4776 5.71861 10.4776 5.29759 10.8999C4.89954 11.3221 4.89954 11.9946 5.30525 12.4246L8.4514 15.6227L8.49733 15.6775C8.9107 16.1075 9.57667 16.1075 9.99004 15.6775L16.6957 8.82776C17.1014 8.40552 17.1014 7.72524 16.6957 7.31082Z" fill="white"/>
</mask>
<g mask="url(#mask0)">
</g>
</svg>
