<svg width="16" height="16" viewBox="0 0 16 16" fill="none" xmlns="http://www.w3.org/2000/svg">
<path fill-rule="evenodd" clip-rule="evenodd" d="M8.03857 0.00013865C10.249 0.00660838 12.2393 0.906633 13.6738 2.3506C15.1211 3.80104 16 5.7953 16 7.99037C16 10.2049 15.1211 12.2056 13.6543 13.656C12.2065 15.1129 10.1973 16.0065 7.97412 16C6.35889 15.9935 4.8335 15.5014 3.5542 14.6467C2.28125 13.792 1.24072 12.5812 0.633301 11.1113C0.42627 10.6452 0.277832 10.1271 0.161621 9.61562C0.0644531 9.09108 0 8.54726 0 7.99037C0 5.78884 0.898438 3.7881 2.3457 2.33766C3.8125 0.880754 5.80273 -0.0128008 8.03857 0.00013865Z" fill="#2F75EC"/>
<path fill-rule="evenodd" clip-rule="evenodd" d="M9.46289 3.3468C9.91455 3.56287 10.2788 3.89661 10.5405 4.27612C10.6792 4.47253 10.7881 4.70154 10.8682 4.92407C11.0356 5.40186 11.0356 5.95813 10.9121 6.44238C10.854 6.65833 10.7808 6.84814 10.6792 7.00525C10.6299 7.09387 10.5728 7.17456 10.5117 7.25024C10.438 7.34204 10.3584 7.42664 10.2788 7.50916C10.1182 7.6532 9.95117 7.78406 9.76904 7.92151C9.58691 8.06543 9.40479 8.21594 9.24463 8.45813C9.09912 8.70032 9.00439 9.04712 9.00439 9.58374C9.00439 9.72437 8.96533 9.86047 8.89697 9.98328C8.84717 10.072 8.78223 10.1537 8.70605 10.2251C8.53125 10.3822 8.26904 10.4803 7.99219 10.4803C7.77002 10.4803 7.55762 10.4136 7.39258 10.302C7.35742 10.2783 7.32422 10.2526 7.29346 10.2251C7.11133 10.0549 6.99512 9.82593 6.99512 9.58374C6.99512 8.65442 7.18408 8.02612 7.46826 7.57458C7.62744 7.31775 7.81152 7.11646 8.00684 6.9408C8.16016 6.8031 8.32031 6.68103 8.48047 6.56018L8.56982 6.48682C8.6626 6.4115 8.7583 6.33154 8.82959 6.23303C9.08447 5.87964 9.03369 5.36255 8.69141 5.06152C8.5166 4.89795 8.26172 4.79321 7.99219 4.79321C7.92676 4.79321 7.85742 4.8042 7.78809 4.81946C7.72656 4.83301 7.66504 4.84985 7.60645 4.86523C7.49756 4.91101 7.38086 4.98303 7.29346 5.06152C7.24951 5.09753 7.21143 5.14172 7.17676 5.19006C7.14209 5.2384 7.11133 5.29065 7.08252 5.3429C7.03125 5.45422 7.00928 5.55896 7.00928 5.68323C7.00928 5.83984 6.96338 5.98865 6.88184 6.11829C6.83398 6.19446 6.77393 6.26404 6.70361 6.32458C6.52881 6.4751 6.27393 6.58643 6.00488 6.58643C5.72803 6.58643 5.47314 6.4751 5.29102 6.32458C5.12354 6.16101 5 5.93188 5 5.68323C5 5.32324 5.08008 4.96985 5.23291 4.63611C5.39307 4.31543 5.60449 4.021 5.87354 3.7854C6.02783 3.64685 6.20117 3.52332 6.3877 3.41724C6.52734 3.33789 6.6748 3.26831 6.82764 3.20947C7.06836 3.11658 7.32959 3.05359 7.59912 3.02246C7.72852 3.00757 7.85986 3 7.99219 3C8.53125 3 9.03369 3.13086 9.46289 3.3468ZM7.29346 11.4556C7.46826 11.2985 7.72314 11.1937 7.99268 11.1937C8.26904 11.1937 8.53125 11.2985 8.70605 11.4556C8.88818 11.6256 9.00439 11.8481 9.00439 12.0969C9.00439 12.3456 8.88818 12.5681 8.70605 12.7317C8.53125 12.8953 8.26904 13 7.99268 13C7.72314 13 7.46826 12.8953 7.29346 12.7317C7.11182 12.5681 6.99512 12.3456 6.99512 12.0969C6.99512 11.8481 7.11182 11.6256 7.29346 11.4556Z" fill="white"/>
</svg>
